<svg width="28" height="28" viewBox="0 0 28 28" fill="none" xmlns="http://www.w3.org/2000/svg">
<path d="M14 0.666687C6.63996 0.666687 0.666626 6.64002 0.666626 14C0.666626 21.36 6.63996 27.3334 14 27.3334C21.36 27.3334 27.3333 21.36 27.3333 14C27.3333 6.64002 21.36 0.666687 14 0.666687ZM14 4.66669C16.2133 4.66669 18 6.45335 18 8.66669C18 10.88 16.2133 12.6667 14 12.6667C11.7866 12.6667 9.99996 10.88 9.99996 8.66669C9.99996 6.45335 11.7866 4.66669 14 4.66669ZM14 23.6C10.6666 23.6 7.71996 21.8934 5.99996 19.3067C6.03996 16.6534 11.3333 15.2 14 15.2C16.6533 15.2 21.96 16.6534 22 19.3067C20.28 21.8934 17.3333 23.6 14 23.6Z" fill="white"/>
</svg>
